# xmcd
#
# Track frame offsets:
#	150
#	66627
#	99723
#	101821
#	133804
#	147077
#	174560
#	208205
#	224673
#	251729
#	270979
#	306679
#
# Disc length: 4607 seconds
#
# Revision: 1
# Processed by: cddbd v1.5.2PL0 Copyright (c) Steve Scherf et al.
# Submitted via: audiograbber 1.83.01
#
DISCID=ce11fd0c
DTITLE=Grateful Dead - 80-06-20 West High Auditorium, Anchorage AK
DYEAR=1900
DGENRE=
TTITLE0=Sugaree
TTITLE1=Minglewood Blues
TTITLE2=Stage Banter
TTITLE3=Candyman
TTITLE4=Me and My Uncle
TTITLE5=Big River
TTITLE6=Loser
TTITLE7=Lazy Lightning
TTITLE8=Supplication
TTITLE9=Far From Me
TTITLE10=Ramble On Rose
TTITLE11=Feel Like A Stranger
EXTD=
EXTT0=
EXTT1=
EXTT2=
EXTT3=
EXTT4=
EXTT5=
EXTT6=
EXTT7=
EXTT8=
EXTT9=
EXTT10=
EXTT11=
PLAYORDER=
